# xmcd
#
# Track frame offsets:
#	150
#	14191
#	29450
#	44044
#	57051
#	71303
#	86399
#	101566
#	115071
#	127511
#
# Disc length: 1858
#
# Revision: 1
# Processed by: cddbd v1.5.1PL0 Copyright (c) Steve Scherf et al.
# Submitted via: CDex 1.51
# Normalized: r0:TSWAP
#
DISCID=7b07400a
DTITLE=Various Artist - Jazz Hits - Volume 1
DYEAR=1900
DGENRE=Jazz
TTITLE0=Original Dixieland Jazz Band - Tiger Rag
TTITLE1=Paul Whiteman - Wang Wang Blues
TTITLE2=Jelly Roll Morton - Black Bottom Stomp
TTITLE3=Joe Venuti - Stringin' the Blues
TTITLE4=Jimmy Noone and His Orchestra - Apex Blues
TTITLE5=Louis Armstrong and His Hot Five - West End Blues
TTITLE6=The Casa Loma Orchestra - Casa Loma Stomp
TTITLE7=Sidney Bechet - Maple Leaf Rag
TTITLE8=Earl Hines - Rosetta
TTITLE9=Chick Webb and His Orchestra - Don't Be That Way
EXTD=
EXTT0=
EXTT1=
EXTT2=
EXTT3=
EXTT4=
EXTT5=
EXTT6=
EXTT7=
EXTT8=
EXTT9=
PLAYORDER=
